<?xml version="1.0" encoding="UTF-8" standalone="no"?>
<svg
   width="16"
   height="16"
   fill="currentColor"
   class="bi bi-link-45deg"
   viewBox="0 0 16 16"
   version="1.1"
   id="svg48"
   sodipodi:docname="icon-link-break-src.svg"
   inkscape:version="1.2.2 (b0a8486541, 2022-12-01)"
   inkscape:export-filename="icon-link-break.svg"
   inkscape:export-xdpi="96"
   inkscape:export-ydpi="96"
   xmlns:inkscape="http://www.inkscape.org/namespaces/inkscape"
   xmlns:sodipodi="http://sodipodi.sourceforge.net/DTD/sodipodi-0.dtd"
   xmlns="http://www.w3.org/2000/svg"
   xmlns:svg="http://www.w3.org/2000/svg">
  <defs
     id="defs52" />
  <sodipodi:namedview
     id="namedview50"
     pagecolor="#ffffff"
     bordercolor="#999999"
     borderopacity="1"
     inkscape:showpageshadow="0"
     inkscape:pageopacity="0"
     inkscape:pagecheckerboard="0"
     inkscape:deskcolor="#d1d1d1"
     showgrid="false"
     inkscape:zoom="46.164676"
     inkscape:cx="8.0364476"
     inkscape:cy="8.6321412"
     inkscape:window-width="1920"
     inkscape:window-height="1131"
     inkscape:window-x="0"
     inkscape:window-y="32"
     inkscape:window-maximized="0"
     inkscape:current-layer="g1425" />
  <rect
     style="display:none;fill:#008080;fill-opacity:1;stroke:none;stroke-width:5.66929;stroke-linecap:round;stroke-opacity:1;paint-order:stroke fill markers;stop-color:#000000"
     id="rect1427"
     width="16"
     height="16"
     x="0"
     y="0"
     inkscape:label="background" />
  <g
     id="g1425"
     transform="matrix(0.79731185,0,0,0.80642871,1.333732,1.6251026)"
     style="stroke-width:1.24712"
     inkscape:label="link">
    <g
       id="g1182"
       transform="rotate(-30,9.8530552,10.471767)"
       style="stroke-width:1.24712;stroke:#000000;stroke-opacity:1">
      <path
         id="rect333"
         style="display:inline;fill:#000000;fill-opacity:1;stroke-width:0.7495099;stroke-linecap:round;paint-order:stroke fill markers;stop-color:#000000;stroke:#000000;stroke-opacity:1;stroke-dasharray:none"
         d="M 9.0859375,9.0859375 A 2,2 0 0 1 9.0078125,9.2363281 2,2 0 0 1 8.8691406,9.4375 2,2 0 0 1 8.7070312,9.6210938 L 6.8808594,11.449219 a 2.0011676,2.0011676 0 0 1 -0.3789063,0.296875 2.0011676,2.0011676 0 0 1 -0.4414062,0.199218 2.0011676,2.0011676 0 0 1 -0.4746094,0.08594 2.0011676,2.0011676 0 0 1 -0.4804687,-0.0293 2.0011676,2.0011676 0 0 1 -0.4609376,-0.142578 2.0011676,2.0011676 0 0 1 -0.4121093,-0.25 2.0011676,2.0011676 0 0 1 -0.3417969,-0.341797 2.0011676,2.0011676 0 0 1 -0.25,-0.412109 A 2.0011676,2.0011676 0 0 1 3.4980469,10.394531 2.0011676,2.0011676 0 0 1 3.46875,9.9140625 2.0011676,2.0011676 0 0 1 3.5546875,9.4394531 2.0011676,2.0011676 0 0 1 3.7539062,8.9980469 2.0011676,2.0011676 0 0 1 4.0507812,8.6191406 L 4.84375,7.828125 A 4.018,4.018 0 0 1 4.7265625,7.1914062 4.018,4.018 0 0 1 4.7148438,6.5429688 L 3.34375,7.9140625 a 3.0002541,3.0002541 0 0 0 -0.3867188,0.453125 3.0002541,3.0002541 0 0 0 -0.2890624,0.5214844 3.0002541,3.0002541 0 0 0 -0.1796876,0.5664062 3.0002541,3.0002541 0 0 0 -0.064453,0.5917969 3.0002541,3.0002541 0 0 0 0.052734,0.59375 3.0002541,3.0002541 0 0 0 0.1699219,0.570313 3.0002541,3.0002541 0 0 0 0.2773437,0.527343 3.0002541,3.0002541 0 0 0 0.3789063,0.458985 3.0002541,3.0002541 0 0 0 0.4589844,0.378906 3.0002541,3.0002541 0 0 0 0.5273437,0.277344 3.0002541,3.0002541 0 0 0 0.5703125,0.169922 3.0002541,3.0002541 0 0 0 0.59375,0.05273 3.0002541,3.0002541 0 0 0 0.5917969,-0.06445 3.0002541,3.0002541 0 0 0 0.5664062,-0.179688 3.0002541,3.0002541 0 0 0 0.5214844,-0.289062 3.0002541,3.0002541 0 0 0 0.453125,-0.386719 l 1.828125,-1.828125 A 3,3 0 0 0 9.5898438,10.136719 3,3 0 0 0 9.7480469,9.9296875 3,3 0 0 0 9.8183594,9.8183594 Z" />
      <path
         id="path1177"
         style="display:inline;fill:#000000;fill-opacity:1;stroke-width:0.7495099;stroke-linecap:round;paint-order:stroke fill markers;stop-color:#000000;stroke:#000000;stroke-opacity:1;stroke-dasharray:none"
         d="M 5.8671875,5.8671875 A 3,3 0 0 0 5.7753906,6.1621094 3,3 0 0 0 5.7089844,6.7304688 3,3 0 0 0 5.75,7.3007812 3,3 0 0 0 5.9003906,7.8515625 3,3 0 0 0 6.1523438,8.3652344 3,3 0 0 0 6.4980469,8.8222656 3,3 0 0 0 6.9238281,9.2050781 3,3 0 0 0 7.4140625,9.5 L 8.1894531,8.7246094 A 2,2 0 0 1 7.7578125,8.5527344 2,2 0 0 1 7.3769531,8.2871094 2,2 0 0 1 7.0683594,7.9394531 2,2 0 0 1 6.8496094,7.53125 2,2 0 0 1 6.7285156,7.0820312 2,2 0 0 1 6.7167969,6.7167969 Z" />
    </g>
    <g
       id="g1199"
       transform="rotate(30,10.697194,9.6252646)"
       style="stroke-width:1.24712;stroke:#000000;stroke-opacity:1">
      <path
         id="path1194"
         style="display:inline;stroke-width:0.7495099;stroke:#000000;stroke-opacity:1;stroke-dasharray:none"
         d="m 9.0859375,9.0859375 0.734375,0.734375 A 3,3 0 0 0 8.5859375,5.5 L 8,6.0859375 A 1.002,1.002 0 0 0 7.8457031,6.2851562 2,2 0 0 1 9.0859375,9.0859375 Z" />
      <path
         id="path1190"
         style="display:inline;stroke-width:0.7495099;stroke:#000000;stroke-opacity:1;stroke-dasharray:none"
         d="m 5.859375,5.859375 0.8710938,0.8710938 a 2,2 0 0 1 0.5625,-1.3515626 L 9.1191406,3.5507812 A 2.0011676,2.0011676 0 1 1 11.949219,6.3808594 L 11.15625,7.171875 c 0.112,0.4199992 0.155906,0.8551102 0.128906,1.2871094 L 12.65625,7.0878906 A 3.0002541,3.0002541 0 0 0 10.660156,1.96875 3.0002541,3.0002541 0 0 0 8.4140625,2.84375 l -1.828125,1.828125 a 3,3 0 0 0 -0.7265625,1.1875 z" />
    </g>
    <path
       id="rect1359"
       style="fill:#000000;stroke-width:7.0702;stroke-linecap:round;paint-order:stroke fill markers;stop-color:#000000"
       d="M 6.1847454,-0.4715703 6.8172407,5.0006711 4.6078942,0.41334353 Z"
       sodipodi:nodetypes="cccc" />
    <path
       id="rect1359-7"
       style="fill:#000000;stroke-width:7.0702;stroke-linecap:round;paint-order:stroke fill markers;stop-color:#000000"
       d="M 1.197535,0.74199662 6.1876528,5.8309577 0.27159078,2.8913707 Z"
       sodipodi:nodetypes="cccc" />
    <path
       id="rect1359-7-5"
       style="fill:#000000;stroke-width:7.0702;stroke-linecap:round;paint-order:stroke fill markers;stop-color:#000000"
       d="M 0.01721551,5.4672972 5.4245358,6.5526439 2.2168275,6.9845637 0.35759841,7.2349104 Z"
       sodipodi:nodetypes="ccccc" />
  </g>
</svg>
