<?xml version="1.0" encoding="UTF-8" standalone="no"?>
<svg xmlns:dc="http://purl.org/dc/elements/1.1/" xmlns:cc="http://creativecommons.org/ns#" xmlns:rdf="http://www.w3.org/1999/02/22-rdf-syntax-ns#" xmlns:svg="http://www.w3.org/2000/svg" xmlns="http://www.w3.org/2000/svg" width="611.36853mm" height="89.961159mm" viewBox="0 0 611.36852 89.961157" version="1.1" id="svg8">
  <defs id="defs2"/>
  <metadata id="metadata5">
    <rdf:RDF>
      <cc:Work rdf:about="">
        <dc:format>image/svg+xml</dc:format>
        <dc:type rdf:resource="http://purl.org/dc/dcmitype/StillImage"/>
        <dc:title/>
      </cc:Work>
    </rdf:RDF>
  </metadata>
  <g id="layer1" transform="translate(-402.8119,123.37966)">
    <g id="g1249" transform="matrix(2.9109875,0,0,2.9109875,390.18695,-136.05701)">
	<path fill="#ff0000" d="m 6.448,35.259 c -0.596,0 -1.097,-0.186 -1.502,-0.557 -0.406,-0.38 -0.609,-0.833 -0.609,-1.36 v -6.891 h 9.689 v 2.176 H 7.355 c -0.173,0 -0.324,0.057 -0.453,0.169 -0.112,0.112 -0.169,0.246 -0.169,0.401 0,0.164 0.057,0.302 0.169,0.414 0.121,0.104 0.271,0.155 0.453,0.155 h 6.671 v 2.177 H 7.355 c -0.173,0 -0.324,0.056 -0.453,0.168 -0.112,0.112 -0.169,0.246 -0.169,0.401 0,0.164 0.057,0.303 0.169,0.415 0.121,0.104 0.271,0.155 0.453,0.155 h 6.671 v 2.176 H 6.448 Z" id="path1211"/>

	<path fill="#ff0000" d="m 15.282,35.259 v -8.808 h 7.578 c 0.587,0 1.083,0.19 1.489,0.569 0.415,0.381 0.622,0.83 0.622,1.348 v 6.891 h -2.396 v -6.062 c 0,-0.155 -0.061,-0.289 -0.182,-0.401 -0.129,-0.112 -0.276,-0.169 -0.44,-0.169 H 18.3 c -0.173,0 -0.324,0.057 -0.453,0.169 -0.112,0.112 -0.169,0.246 -0.169,0.401 v 6.062 z" id="path1213"/>

	<path fill="#ff0000" d="m 29.88,35.259 v -6.062 c 0,-0.155 -0.065,-0.289 -0.194,-0.401 -0.121,-0.112 -0.268,-0.169 -0.44,-0.169 h -3.018 v -2.176 h 9.689 v 2.176 h -3.018 c -0.182,0 -0.333,0.057 -0.454,0.169 -0.121,0.112 -0.181,0.246 -0.181,0.401 v 6.062 z" id="path1215"/>

	<path fill="#ff0000" d="m 39.284,35.259 c -0.596,0 -1.097,-0.186 -1.502,-0.557 -0.406,-0.38 -0.609,-0.833 -0.609,-1.36 v -6.891 h 9.689 v 2.176 h -6.671 c -0.173,0 -0.324,0.057 -0.453,0.169 -0.112,0.112 -0.169,0.246 -0.169,0.401 0,0.164 0.057,0.302 0.169,0.414 0.121,0.104 0.271,0.155 0.453,0.155 h 6.671 v 2.177 h -6.671 c -0.173,0 -0.324,0.056 -0.453,0.168 -0.112,0.112 -0.169,0.246 -0.169,0.401 0,0.164 0.057,0.303 0.169,0.415 0.121,0.104 0.271,0.155 0.453,0.155 h 6.671 v 2.176 h -7.578 z" id="path1217"/>

	<path fill="#ff0000" d="m 48.118,35.259 v -8.808 h 7.578 c 0.587,0 1.083,0.19 1.489,0.569 0.415,0.381 0.622,0.83 0.622,1.348 v 1.71 c -0.035,0.492 -0.233,0.751 -0.596,0.777 0.363,0.034 0.562,0.293 0.596,0.776 v 3.627 h -2.396 v -2.746 c 0,-0.155 -0.061,-0.289 -0.182,-0.401 -0.129,-0.112 -0.276,-0.168 -0.44,-0.168 h -3.653 c -0.173,0 -0.324,0.056 -0.453,0.168 -0.112,0.112 -0.169,0.246 -0.169,0.401 v 2.746 h -2.396 z m 6.671,-5.492 c 0.172,0 0.319,-0.051 0.44,-0.155 0.121,-0.112 0.182,-0.25 0.182,-0.414 0,-0.155 -0.061,-0.289 -0.182,-0.401 -0.129,-0.112 -0.276,-0.169 -0.44,-0.169 h -3.653 c -0.173,0 -0.324,0.057 -0.453,0.169 -0.112,0.112 -0.169,0.246 -0.169,0.401 0,0.164 0.057,0.302 0.169,0.414 0.121,0.104 0.271,0.155 0.453,0.155 z" id="path1219"/>

	<path fill="#ff0000" d="m 62.716,35.259 v -6.062 c 0,-0.155 -0.065,-0.289 -0.194,-0.401 -0.121,-0.112 -0.268,-0.169 -0.44,-0.169 h -3.018 v -2.176 h 9.689 v 2.176 h -3.018 c -0.182,0 -0.333,0.057 -0.454,0.169 -0.121,0.112 -0.181,0.246 -0.181,0.401 v 6.062 z" id="path1221"/>

	<path fill="#ff0000" d="m 70.009,35.259 v -6.891 c 0,-0.526 0.203,-0.976 0.609,-1.348 0.414,-0.379 0.915,-0.569 1.502,-0.569 h 5.466 c 0.587,0 1.083,0.19 1.489,0.569 0.415,0.381 0.622,0.83 0.622,1.348 v 6.891 h -2.396 v -3.315 h -4.896 v 3.315 z m 7.292,-5.492 v -0.569 c 0,-0.155 -0.061,-0.289 -0.182,-0.401 -0.129,-0.112 -0.276,-0.169 -0.44,-0.169 h -3.653 c -0.173,0 -0.324,0.057 -0.453,0.169 -0.112,0.112 -0.169,0.246 -0.169,0.401 v 0.569 z" id="path1223"/>

	<path fill="#ff0000" d="m 80.954,35.259 v -8.808 h 2.396 v 8.808 z" id="path1225"/>

	<path fill="#ff0000" d="m 84.607,35.259 v -8.808 h 7.577 c 0.587,0 1.084,0.19 1.49,0.569 0.415,0.381 0.622,0.83 0.622,1.348 v 6.891 H 91.9 v -6.062 c 0,-0.155 -0.061,-0.289 -0.181,-0.401 -0.13,-0.112 -0.276,-0.169 -0.44,-0.169 h -3.653 c -0.173,0 -0.324,0.057 -0.454,0.169 -0.112,0.112 -0.168,0.246 -0.168,0.401 v 6.062 z" id="path1227"/>

	<path fill="#ff0000" d="m 95.552,35.259 v -8.808 h 11.23 c 0.579,0 1.071,0.19 1.477,0.569 0.423,0.381 0.634,0.83 0.634,1.348 v 6.891 h -2.396 v -6.062 c 0,-0.155 -0.065,-0.289 -0.194,-0.401 -0.121,-0.112 -0.268,-0.169 -0.44,-0.169 h -1.813 c -0.182,0 -0.333,0.057 -0.453,0.169 -0.121,0.112 -0.182,0.246 -0.182,0.401 v 6.062 h -2.396 v -6.062 c 0,-0.155 -0.06,-0.289 -0.181,-0.401 -0.129,-0.112 -0.276,-0.169 -0.44,-0.169 H 98.57 c -0.173,0 -0.324,0.057 -0.454,0.169 -0.112,0.112 -0.168,0.246 -0.168,0.401 v 6.062 z" id="path1229"/>

	<path fill="#ff0000" d="m 112.249,35.259 c -0.596,0 -1.097,-0.186 -1.502,-0.557 -0.406,-0.38 -0.609,-0.833 -0.609,-1.36 v -6.891 h 9.689 v 2.176 h -6.671 c -0.173,0 -0.324,0.057 -0.454,0.169 -0.112,0.112 -0.168,0.246 -0.168,0.401 0,0.164 0.056,0.302 0.168,0.414 0.121,0.104 0.272,0.155 0.454,0.155 h 6.671 v 2.177 h -6.671 c -0.173,0 -0.324,0.056 -0.454,0.168 -0.112,0.112 -0.168,0.246 -0.168,0.401 0,0.164 0.056,0.303 0.168,0.415 0.121,0.104 0.272,0.155 0.454,0.155 h 6.671 v 2.176 h -7.578 z" id="path1231"/>

	<path fill="#ff0000" d="m 121.082,35.259 v -8.808 h 7.578 c 0.587,0 1.084,0.19 1.489,0.569 0.415,0.381 0.622,0.83 0.622,1.348 v 6.891 h -2.396 v -6.062 c 0,-0.155 -0.061,-0.289 -0.182,-0.401 -0.129,-0.112 -0.275,-0.169 -0.439,-0.169 h -3.653 c -0.173,0 -0.323,0.057 -0.454,0.169 -0.111,0.112 -0.168,0.246 -0.168,0.401 v 6.062 z" id="path1233"/>

	<path fill="#ff0000" d="m 135.681,35.259 v -6.062 c 0,-0.155 -0.065,-0.289 -0.194,-0.401 -0.121,-0.112 -0.268,-0.169 -0.44,-0.169 h -3.019 v -2.176 h 9.689 v 2.176 h -3.018 c -0.182,0 -0.333,0.057 -0.454,0.169 -0.12,0.112 -0.181,0.246 -0.181,0.401 v 6.062 z" id="path1235"/>

	<path fill="#ff0000" d="m 146.289,35.259 v -2.176 h 6.67 c 0.174,0 0.32,-0.052 0.441,-0.155 0.121,-0.112 0.182,-0.251 0.182,-0.415 0,-0.155 -0.061,-0.289 -0.182,-0.401 -0.129,-0.112 -0.277,-0.168 -0.441,-0.168 H 148.4 c -0.596,0 -1.097,-0.186 -1.502,-0.558 -0.406,-0.38 -0.609,-0.833 -0.609,-1.359 v -1.658 c 0,-0.526 0.203,-0.976 0.609,-1.348 0.414,-0.379 0.914,-0.569 1.502,-0.569 h 7.578 v 2.176 h -6.672 c -0.172,0 -0.324,0.057 -0.453,0.169 -0.111,0.112 -0.168,0.246 -0.168,0.401 0,0.164 0.057,0.302 0.168,0.414 0.121,0.104 0.271,0.155 0.453,0.155 h 4.561 c 0.586,0 1.082,0.19 1.488,0.57 0.414,0.38 0.623,0.829 0.623,1.348 v 1.657 c 0,0.536 -0.209,0.989 -0.623,1.36 -0.422,0.371 -0.92,0.557 -1.488,0.557 z" id="path1237"/>

	<path fill="#ff0000" d="m 160.887,35.259 v -3.315 h -1.541 c -0.596,0 -1.098,-0.186 -1.504,-0.558 -0.404,-0.38 -0.607,-0.833 -0.607,-1.359 v -3.575 h 2.396 v 2.746 c 0,0.164 0.055,0.302 0.168,0.414 0.121,0.104 0.271,0.155 0.453,0.155 h 3.652 c 0.174,0 0.32,-0.051 0.441,-0.155 0.119,-0.112 0.18,-0.25 0.18,-0.414 v -2.746 h 2.396 v 3.575 c 0,0.535 -0.207,0.988 -0.621,1.359 -0.424,0.372 -0.92,0.558 -1.49,0.558 h -1.541 v 3.315 z" id="path1239"/>

	<path fill="#ff0000" d="m 168.18,35.259 v -2.176 h 6.67 c 0.174,0 0.32,-0.052 0.441,-0.155 0.119,-0.112 0.18,-0.251 0.18,-0.415 0,-0.155 -0.061,-0.289 -0.18,-0.401 C 175.16,32 175.014,31.944 174.85,31.944 h -4.559 c -0.596,0 -1.098,-0.186 -1.504,-0.558 -0.404,-0.38 -0.607,-0.833 -0.607,-1.359 v -1.658 c 0,-0.526 0.203,-0.976 0.607,-1.348 0.416,-0.379 0.916,-0.569 1.504,-0.569 h 7.576 v 2.176 h -6.67 c -0.174,0 -0.324,0.057 -0.453,0.169 -0.113,0.112 -0.168,0.246 -0.168,0.401 0,0.164 0.055,0.302 0.168,0.414 0.121,0.104 0.271,0.155 0.453,0.155 h 4.559 c 0.588,0 1.084,0.19 1.49,0.57 0.414,0.38 0.621,0.829 0.621,1.348 v 1.657 c 0,0.536 -0.207,0.989 -0.621,1.36 -0.424,0.371 -0.92,0.557 -1.49,0.557 z" id="path1241"/>

	<path fill="#ff0000" d="m 182.777,35.259 v -6.062 c 0,-0.155 -0.064,-0.289 -0.195,-0.401 -0.119,-0.112 -0.268,-0.169 -0.439,-0.169 h -3.018 v -2.176 h 9.688 v 2.176 h -3.018 c -0.182,0 -0.332,0.057 -0.453,0.169 -0.121,0.112 -0.182,0.246 -0.182,0.401 v 6.062 z" id="path1243"/>

	<path fill="#ff0000" d="m 192.182,35.259 c -0.596,0 -1.098,-0.186 -1.504,-0.557 -0.404,-0.38 -0.607,-0.833 -0.607,-1.36 v -6.891 h 9.688 v 2.176 h -6.67 c -0.174,0 -0.324,0.057 -0.453,0.169 -0.113,0.112 -0.168,0.246 -0.168,0.401 0,0.164 0.055,0.302 0.168,0.414 0.121,0.104 0.271,0.155 0.453,0.155 h 6.67 v 2.177 h -6.67 c -0.174,0 -0.324,0.056 -0.453,0.168 -0.113,0.112 -0.168,0.246 -0.168,0.401 0,0.164 0.055,0.303 0.168,0.415 0.121,0.104 0.271,0.155 0.453,0.155 h 6.67 v 2.176 h -7.577 z" id="path1245"/>

	<path fill="#ff0000" d="m 201.016,35.259 v -8.808 h 11.23 c 0.578,0 1.07,0.19 1.477,0.569 0.422,0.381 0.635,0.83 0.635,1.348 v 6.891 h -2.396 v -6.062 c 0,-0.155 -0.066,-0.289 -0.195,-0.401 -0.121,-0.112 -0.268,-0.169 -0.439,-0.169 h -1.814 c -0.182,0 -0.332,0.057 -0.453,0.169 -0.121,0.112 -0.182,0.246 -0.182,0.401 v 6.062 h -2.396 v -6.062 c 0,-0.155 -0.061,-0.289 -0.18,-0.401 -0.131,-0.112 -0.277,-0.169 -0.441,-0.169 h -1.826 c -0.174,0 -0.324,0.057 -0.453,0.169 -0.113,0.112 -0.168,0.246 -0.168,0.401 v 6.062 z" id="path1247"/>

</g>
    <g id="g1267" transform="matrix(2.9109875,0,0,2.9109875,390.18695,-136.05701)">
	<path fill="#ff0000" d="m 4.362,5.046 h 5.001 l 6.861,11.14 V 5.046 h 4.935 V 21.02 H 16.224 L 9.331,9.881 V 21.02 H 4.362 Z" id="path1251"/>

	<path fill="#ff0000" d="m 22.486,4.456 h 4.968 v 3.363 h -4.968 z m 0,5.547 h 4.968 V 21.02 h -4.968 z" id="path1253"/>

	<path fill="#ff0000" d="m 37.757,9.435 h 0.189 c 0.431,0 0.932,0.071 1.504,0.212 0.653,0.171 1.277,0.472 1.871,0.902 0.579,0.409 1.084,0.973 1.515,1.693 0.387,0.69 0.58,1.541 0.58,2.551 v 6.227 h -4.968 v -7.273 c 0,-0.498 -0.21,-0.964 -0.629,-1.398 -0.42,-0.435 -0.979,-0.651 -1.677,-0.651 -0.668,0 -1.23,0.217 -1.688,0.651 -0.457,0.435 -0.685,0.9 -0.685,1.398 V 21.02 H 28.801 V 9.937 h 4.968 v 1.146 c 0.475,-0.452 1.056,-0.835 1.743,-1.146 0.688,-0.313 1.436,-0.479 2.245,-0.502 z" id="path1255"/>

	<path fill="#ff0000" d="m 47.215,6.138 h 4.968 v 2.25 h 2.729 v 1.648 H 52.183 V 21.02 H 47.215 V 10.036 H 44.497 V 8.388 h 2.718 z" id="path1257"/>

	<path fill="#ff0000" d="m 69.493,16.921 c -0.201,0.602 -0.515,1.166 -0.941,1.692 -0.427,0.527 -0.93,0.98 -1.509,1.359 -0.579,0.356 -1.221,0.641 -1.927,0.853 -0.705,0.211 -1.459,0.316 -2.261,0.316 -0.943,0 -1.834,-0.15 -2.674,-0.451 -0.839,-0.301 -1.57,-0.707 -2.194,-1.219 -0.631,-0.543 -1.125,-1.164 -1.481,-1.866 -0.356,-0.702 -0.534,-1.446 -0.534,-2.233 0,-0.802 0.178,-1.556 0.534,-2.261 0.356,-0.706 0.851,-1.326 1.481,-1.86 0.624,-0.52 1.355,-0.931 2.194,-1.231 0.839,-0.301 1.73,-0.451 2.674,-0.451 0.958,0 1.856,0.15 2.695,0.451 0.839,0.301 1.57,0.723 2.194,1.265 0.609,0.535 1.097,1.154 1.465,1.86 0.368,0.705 0.552,1.459 0.552,2.261 h -8.822 v 2.15 c 0,0.943 0.239,1.564 0.718,1.865 0.479,0.301 0.9,0.451 1.264,0.451 0.334,0 0.735,-0.15 1.203,-0.451 0.468,-0.301 0.702,-0.922 0.702,-1.865 v -0.635 z m -4.634,-3.119 c 0,-0.453 -0.017,-0.841 -0.05,-1.164 -0.033,-0.323 -0.117,-0.607 -0.25,-0.853 -0.201,-0.312 -0.451,-0.546 -0.752,-0.701 -0.301,-0.156 -0.596,-0.234 -0.886,-0.234 -0.319,0 -0.629,0.078 -0.93,0.234 -0.301,0.155 -0.54,0.39 -0.719,0.701 -0.156,0.245 -0.251,0.529 -0.284,0.853 -0.033,0.324 -0.05,0.711 -0.05,1.164 z" id="path1259"/>

	<path fill="#ff0000" d="m 79.986,9.435 h 0.189 c 0.431,0 0.932,0.071 1.504,0.212 0.653,0.171 1.277,0.472 1.871,0.902 0.579,0.409 1.084,0.973 1.515,1.693 0.387,0.69 0.58,1.541 0.58,2.551 v 6.227 h -4.968 v -7.273 c 0,-0.498 -0.21,-0.964 -0.629,-1.398 -0.42,-0.435 -0.979,-0.651 -1.677,-0.651 -0.668,0 -1.23,0.217 -1.688,0.651 -0.457,0.435 -0.685,0.9 -0.685,1.398 V 21.02 H 71.03 V 9.937 h 4.968 v 1.146 c 0.475,-0.452 1.056,-0.835 1.743,-1.146 0.687,-0.313 1.435,-0.479 2.245,-0.502 z" id="path1261"/>

	<path fill="#ff0000" d="m 95.871,4.355 h 4.968 V 21.02 h -4.968 v -0.646 c -0.958,0.646 -2.146,0.969 -3.564,0.969 -1.419,0 -2.709,-0.527 -3.871,-1.582 -1.162,-1.055 -1.743,-2.543 -1.743,-4.467 0,-0.742 0.161,-1.474 0.484,-2.194 0.323,-0.72 0.763,-1.354 1.32,-1.904 0.572,-0.579 1.255,-1.036 2.05,-1.37 0.594,-0.238 1.229,-0.356 1.904,-0.356 0.193,0 0.397,0.011 0.613,0.033 0.572,0.044 1.086,0.163 1.542,0.356 0.457,0.193 0.878,0.397 1.265,0.612 z m 0,9.068 c 0,-0.839 -0.229,-1.401 -0.686,-1.688 -0.457,-0.286 -0.874,-0.429 -1.253,-0.429 -0.408,0 -0.841,0.143 -1.298,0.429 -0.457,0.286 -0.685,0.849 -0.685,1.688 v 3.965 c 0,0.862 0.228,1.436 0.685,1.722 0.457,0.286 0.89,0.429 1.298,0.429 0.379,0 0.794,-0.143 1.248,-0.429 0.454,-0.286 0.68,-0.859 0.68,-1.722 z" id="path1263"/>

	<path fill="#ff0000" d="m 111.577,9.942 c 0.839,0.308 1.578,0.732 2.217,1.275 0.609,0.527 1.095,1.146 1.458,1.859 0.364,0.713 0.547,1.479 0.547,2.295 0,0.816 -0.183,1.584 -0.547,2.301 -0.363,0.716 -0.85,1.334 -1.458,1.854 -0.639,0.543 -1.378,0.968 -2.217,1.276 -0.839,0.308 -1.734,0.462 -2.685,0.462 -0.958,0 -1.862,-0.154 -2.712,-0.462 -0.851,-0.309 -1.584,-0.733 -2.2,-1.276 -0.631,-0.52 -1.129,-1.138 -1.493,-1.854 -0.364,-0.717 -0.546,-1.484 -0.546,-2.301 0,-0.817 0.182,-1.582 0.546,-2.295 0.364,-0.713 0.861,-1.332 1.493,-1.859 0.616,-0.543 1.35,-0.968 2.2,-1.275 0.85,-0.309 1.754,-0.463 2.712,-0.463 0.95,0 1.845,0.155 2.685,0.463 z m -0.78,3.191 c 0,-0.847 -0.205,-1.449 -0.613,-1.81 -0.408,-0.361 -0.854,-0.54 -1.336,-0.54 -0.475,0 -0.917,0.18 -1.326,0.54 -0.409,0.36 -0.612,0.963 -0.612,1.81 v 4.456 c 0,0.816 0.204,1.412 0.612,1.787 0.408,0.375 0.851,0.563 1.326,0.563 0.482,0 0.928,-0.188 1.336,-0.563 0.408,-0.375 0.613,-0.971 0.613,-1.787 z" id="path1265"/>

</g>
    <g id="g1269" transform="matrix(2.9109875,0,0,2.9109875,390.18695,-136.05701)">
</g>
    <g id="g1271" transform="matrix(2.9109875,0,0,2.9109875,390.18695,-136.05701)">
</g>
    <g id="g1273" transform="matrix(2.9109875,0,0,2.9109875,390.18695,-136.05701)">
</g>
    <g id="g1275" transform="matrix(2.9109875,0,0,2.9109875,390.18695,-136.05701)">
</g>
    <g id="g1277" transform="matrix(2.9109875,0,0,2.9109875,390.18695,-136.05701)">
</g>
    <g id="g1279" transform="matrix(2.9109875,0,0,2.9109875,390.18695,-136.05701)">
</g>
  </g>
</svg>