<?xml version="1.0" encoding="UTF-8" standalone="no"?>
<!-- Created with Inkscape (http://www.inkscape.org/) -->

<svg
   width="150mm"
   height="75.000008mm"
   viewBox="0 0 150 75.000008"
   version="1.1"
   id="svg5"
   xml:space="preserve"
   inkscape:version="1.2.1 (9c6d41e410, 2022-07-14, custom)"
   sodipodi:docname="sms-icon.svg"
   xmlns:inkscape="http://www.inkscape.org/namespaces/inkscape"
   xmlns:sodipodi="http://sodipodi.sourceforge.net/DTD/sodipodi-0.dtd"
   xmlns="http://www.w3.org/2000/svg"
   xmlns:svg="http://www.w3.org/2000/svg"><sodipodi:namedview
     id="namedview7"
     pagecolor="#ffffff"
     bordercolor="#999999"
     borderopacity="1"
     inkscape:showpageshadow="0"
     inkscape:pageopacity="0"
     inkscape:pagecheckerboard="0"
     inkscape:deskcolor="#d1d1d1"
     inkscape:document-units="mm"
     showgrid="false"
     showguides="true"
     inkscape:zoom="2.6725605"
     inkscape:cx="337.31696"
     inkscape:cy="235.16773"
     inkscape:window-width="2609"
     inkscape:window-height="1131"
     inkscape:window-x="0"
     inkscape:window-y="32"
     inkscape:window-maximized="0"
     inkscape:current-layer="layer1" /><defs
     id="defs2" /><g
     inkscape:label="Lines"
     inkscape:groupmode="layer"
     id="layer1"
     style="display:inline;fill:#1a1a1a"
     transform="translate(-10,-10.000001)"><rect
       style="display:inline;fill:#1a1a1a;stroke:none;stroke-width:2.49799;stroke-linejoin:round;stroke-dasharray:none;stroke-opacity:1"
       id="rect231"
       width="150"
       height="75"
       x="10"
       y="10"
       inkscape:label="Base" /><g
       id="g26025"
       inkscape:label="Sides"
       sodipodi:insensitive="true"><path
         style="display:inline;fill:#2b2b2c;fill-opacity:1;stroke:none;stroke-width:1.5;stroke-linecap:round;stroke-linejoin:round;stroke-dasharray:none;stroke-opacity:1"
         d="M 35,41 10,74 V 10 l 25,16 z"
         id="path601"
         inkscape:label="Side-Left"
         sodipodi:nodetypes="ccccc" /><path
         style="display:inline;fill:#1a1a1a;fill-opacity:1;stroke:none;stroke-width:1.5;stroke-linecap:round;stroke-linejoin:round;stroke-dasharray:none;stroke-opacity:1"
         d="M 10,74 35,41 h 100 l 25,33 z"
         id="path7921"
         inkscape:label="Side-Bottom"
         sodipodi:nodetypes="ccccc" /><path
         style="fill:#2b2b2c;fill-opacity:1;stroke:none;stroke-width:1.5;stroke-linecap:round;stroke-linejoin:round;stroke-dasharray:none;stroke-opacity:1"
         d="M 135,26 160,10 V 74 L 135,41 Z"
         id="path603"
         inkscape:label="Side-Right"
         sodipodi:nodetypes="ccccc" /><path
         style="fill:#1a1a1a;fill-opacity:1;stroke:none;stroke-width:1.5;stroke-linecap:round;stroke-linejoin:round;stroke-dasharray:none;stroke-opacity:1"
         d="M 11.21851,11.21851 35,26 H 135 L 160,10 H 10"
         id="path7865"
         inkscape:label="Side-Top"
         sodipodi:nodetypes="ccccc" /><rect
         style="display:inline;fill:#3c3c3d;fill-opacity:1;stroke:none;stroke-width:1.98233;stroke-linecap:round;stroke-linejoin:round;stroke-dasharray:none;stroke-opacity:1"
         id="rect545"
         width="100"
         height="15"
         x="35"
         y="26"
         inkscape:label="Side-Centre" /></g><rect
       style="display:inline;fill:#aa0000;stroke-width:0.25454"
       id="rect407-3"
       width="150"
       height="3"
       x="10"
       y="74"
       inkscape:label="Decal-Bottom-Line" /><g
       id="g22614"
       inkscape:label="Logo"
       transform="matrix(0.84781931,0,0,0.84781931,8.7190211,10.104603)"><g
         id="g18273"
         transform="matrix(0.04813605,0,0,0.04813605,30.044395,43.415024)"
         inkscape:label="sega-logo"
         style="display:inline;fill:#ffffff;fill-opacity:1"><path
           d="m 6.866,92.690999 37.477,-0.038 c 15.333,0 27.759,-12.388 27.759,-27.652 0,-15.294 -12.426,-27.683 -27.759,-27.683 l -9.733,0.053 c -0.767,0 -1.389,-0.629 -1.389,-1.403 0,-0.774 0.622,-1.404 1.389,-1.404 l 37.409,0.008 0.015,-11.736 H 34.602 c -7.237,0 -13.125,5.879 -13.125,13.102 0,7.23 5.887,13.086 13.125,13.086 l 9.779,0.129 c 8.785,0 15.894,7.085 15.894,15.826 0,8.747 -7.108,15.848 -15.894,15.848 h -37.5 l -0.015,11.864"
           style="display:inline;fill:#ffffff;fill-opacity:1"
           id="path18233" /><path
           d="m 6.881,78.071999 h 37.5 c 7.26,0 13.132,-5.856 13.132,-13.094 0,-7.23 -5.872,-13.079 -13.132,-13.079 l -9.779,-0.106 c -8.77,0 -15.886,-7.093 -15.886,-15.856 0,-8.739 7.116,-15.833 15.886,-15.833 l 37.432,-0.008 L 72.019,8.3149988 H 34.61 c -15.317,0 -27.759,12.3740002 -27.759,27.6530002 0,15.279 12.442,27.66 27.759,27.66 l 9.68,0.015 c 0.736,0 1.358,0.6 1.358,1.358 0,0.744 -0.622,1.343 -1.358,1.343 l -37.424,0.03 0.015,11.698"
           style="fill:#ffffff;fill-opacity:1"
           id="path18235" /><path
           d="m 101.158,80.901999 c -6.502,0 -11.828,-5.182 -11.828,-11.798 v -37.438 c 0,-6.365 5.326,-11.6 11.828,-11.6 l 40.003,0.007 V 8.3149988 h -40.003 c -13.018,0 -23.563,10.5070002 -23.563,23.4800002 v 37.31 c 0,12.974 10.545,23.496 23.563,23.496 l 39.836,0.016 -0.008,-11.729 -39.828,0.014"
           style="fill:#ffffff;fill-opacity:1"
           id="path18237" /><path
           d="m 92.198,31.794999 c 0,-4.961 3.991,-8.982 8.96,-8.982 h 40.003 v 11.774 h -34.465 c -2.761,0 -2.799,2.739 -2.799,2.739 h 28.753 v 11.721 H 92.184 l 0.014,-17.252"
           style="fill:#ffffff;fill-opacity:1"
           id="path18239" /><path
           d="m 101.158,78.049999 c -4.954,0 -8.975,-3.998 -8.975,-8.945 v -17.267 h 40.466 v 11.745 h -28.753 c 0.038,2.761 2.799,2.775 2.799,2.775 h 34.298 l -0.008,11.676 -39.827,0.016"
           style="fill:#ffffff;fill-opacity:1"
           id="path18241" /><path
           d="m 169.194,80.871999 c -6.479,0 -11.774,-5.28 -11.774,-11.768 v -37.31 c 0,-6.494 5.257,-11.729 11.743,-11.729 h 38.745 V 8.3149988 h -38.835 c -13.012,0 -23.557,10.5070002 -23.557,23.4800002 v 37.31 c 0,12.974 10.636,23.496 23.647,23.496 l 38.745,0.016 v -55.291 h -33.297 v 11.721 h 21.53 v 31.825 h -26.947"
           style="fill:#ffffff;fill-opacity:1"
           id="path18243" /><path
           d="m 160.181,69.103999 c 0,4.971 4.021,9.014 8.982,9.014 h 24.201 v -26.295 H 174.64 v 11.76 h 6.949 l 0.022,2.761 h -6.918 c -1.51,0 -2.746,-1.251 -2.746,-2.761 l -0.062,-26.265 c 0,0 -0.008,-2.731 2.777,-2.799 h 33.259 l -0.015,-11.714 -38.745,0.008 c -4.961,0 -8.982,4.021 -8.982,8.982 v 37.309"
           style="fill:#ffffff;fill-opacity:1"
           id="path18245" /><path
           d="m 244.315,22.637999 c 0.522,-1.494 1.941,-2.571 3.618,-2.571 1.678,0 3.111,1.077 3.619,2.571 l 18.808,55.563 h -27.54 l 0.03,-13.071 h 9.203 l -4.143,-12.313 -13.496,39.79 h -13.883 l 23.784,-69.969"
           style="fill:#ffffff;fill-opacity:1"
           id="path18247" /><path
           d="m 274.152,80.871999 h -31.286 v 11.735 h 47.612 l -24.762,-73.262 c -2.17,-7.146 -9.323,-12.4030002 -17.791,-12.4030002 -8.481,0 -15.612,5.2340002 -17.798,12.3740002 l -24.989,73.292 h 12.465 l 24.262,-71.244 c 0.985,-2.359 3.308,-4.021 6.039,-4.021 2.716,0 5.052,1.662 6.046,4.006 l 20.202,59.523"
           style="fill:#ffffff;fill-opacity:1"
           id="path18249" /></g><text
         xml:space="preserve"
         style="font-style:normal;font-variant:normal;font-weight:bold;font-stretch:normal;font-size:3.88056px;font-family:serif;-inkscape-font-specification:'serif, Bold';font-variant-ligatures:normal;font-variant-caps:normal;font-variant-numeric:normal;font-variant-east-asian:normal;display:inline;fill:#ffffff;fill-opacity:1;stroke:none;stroke-width:2.565;stroke-linecap:round;stroke-linejoin:round;stroke-dasharray:none;stroke-opacity:1"
         x="45.788578"
         y="47.982658"
         id="text19408"
         inkscape:label="txt-master-system"><tspan
           sodipodi:role="line"
           id="tspan19406"
           style="font-style:normal;font-variant:normal;font-weight:bold;font-stretch:normal;font-size:3.88056px;font-family:serif;-inkscape-font-specification:'serif, Bold';font-variant-ligatures:normal;font-variant-caps:normal;font-variant-numeric:normal;font-variant-east-asian:normal;stroke:none;stroke-width:2.565"
           x="45.788578"
           y="47.982658">MASTER SYSTEM</tspan></text></g><rect
       style="fill:#1a1a1a;fill-opacity:1;stroke:none;stroke-width:1.5;stroke-linecap:round;stroke-linejoin:round;stroke-dasharray:none;stroke-opacity:1"
       id="rect20598"
       width="45"
       height="10"
       x="82.5"
       y="28.5"
       inkscape:label="Cartridge" /><g
       id="g26030"
       inkscape:label="Red-Decal"><path
         id="rect407"
         style="display:inline;fill:#aa0000;stroke:none;stroke-width:0.452072"
         inkscape:label="Decal"
         d="m 80,52 v 19 h 50 V 52 Z"
         sodipodi:nodetypes="ccccc" /><path
         id="rect407-9"
         style="display:inline;fill:#aa0000;stroke:none;stroke-width:0.527901"
         inkscape:label="Decal"
         d="m 80,41 v 5 h 50 v -5 z"
         sodipodi:nodetypes="ccccc" /></g><g
       id="g24823"
       inkscape:label="Decal-Diagram"
       style="display:none;fill:#1a1a1a"
       transform="translate(-25.873084,-81.649974)"><path
         style="fill:#1a1a1a;fill-opacity:1;stroke:none;stroke-width:1;stroke-linecap:round;stroke-linejoin:round;stroke-dasharray:none;stroke-opacity:1"
         d="m 112.65928,136.74282 h -2.97055"
         id="path24288" /><path
         style="fill:none;fill-opacity:1;stroke:#ffffff;stroke-width:1;stroke-linecap:round;stroke-linejoin:round;stroke-dasharray:none;stroke-opacity:1"
         d="m 112.65928,136.74282 h -2.97055 l -1.01379,6.65938 h 41.83079"
         id="path24348" /><path
         style="fill:none;fill-opacity:1;stroke:#ffffff;stroke-width:1;stroke-linecap:round;stroke-linejoin:round;stroke-dasharray:none;stroke-opacity:1"
         d="m 131.75736,137.74163 -0.65687,5.66057"
         id="path24784" /><path
         style="fill:none;fill-opacity:1;stroke:#ffffff;stroke-width:1;stroke-linecap:round;stroke-linejoin:round;stroke-dasharray:none;stroke-opacity:1"
         d="m 137.79281,143.4022 c 0.17692,-0.25 -0.71039,5.09779 -0.71039,5.09779"
         id="path24786" /><path
         style="display:inline;fill:#1a1a1a;fill-opacity:1;stroke:#ffffff;stroke-width:1;stroke-linecap:round;stroke-linejoin:round;stroke-dasharray:none;stroke-opacity:1"
         d="m 114.5748,139.53088 -1.15872,7.74264 14.56678,-4.08837 z"
         id="path23018" /><path
         style="display:inline;fill:none;fill-opacity:1;stroke:#ffffff;stroke-width:1;stroke-linecap:round;stroke-linejoin:round;stroke-dasharray:none;stroke-opacity:1"
         d="m 110.72746,143.4022 -1.03873,5.99048 h 14.37289"
         id="path24782" /><rect
         style="display:inline;fill:#ffffff;fill-opacity:1;stroke:#ffffff;stroke-width:0.765476;stroke-linecap:round;stroke-linejoin:round;stroke-dasharray:none;stroke-opacity:1"
         id="rect23072-4-5-0"
         width="9.3891516"
         height="2.0809066"
         x="161.55775"
         y="154.58133"
         ry="0"
         transform="matrix(1,0,-0.28009316,0.95997284,0,-8.1249998e-7)" /><rect
         style="display:inline;fill:#1a1a1a;fill-opacity:1;stroke:#ffffff;stroke-width:0.753478;stroke-linecap:round;stroke-linejoin:round;stroke-dasharray:none;stroke-opacity:1"
         id="rect23072"
         width="9.0903645"
         height="4.1674032"
         x="163.44466"
         y="142.12738"
         ry="0"
         transform="matrix(1,0,-0.13540804,0.99078992,0,-8.1249998e-7)" /><rect
         style="display:inline;fill:#aa0000;fill-opacity:1;stroke:#ffffff;stroke-width:0.755587;stroke-linecap:round;stroke-linejoin:round;stroke-dasharray:none;stroke-opacity:1"
         id="rect23072-4"
         width="10.006605"
         height="3.6319947"
         x="150.20639"
         y="137.98547"
         ry="0"
         transform="matrix(1,0,-0.17102919,0.98526597,0,-8.1249998e-7)" /><rect
         style="display:inline;fill:#ffffff;fill-opacity:1;stroke:#ffffff;stroke-width:0.765476;stroke-linecap:round;stroke-linejoin:round;stroke-dasharray:none;stroke-opacity:1"
         id="rect23072-4-5"
         width="9.3891516"
         height="2.0809066"
         x="150.91661"
         y="141.40402"
         ry="0"
         transform="matrix(1,0,-0.28009316,0.95997284,0,-8.1249998e-7)" /><rect
         style="display:inline;fill:#aa0000;fill-opacity:1;stroke:#ffffff;stroke-width:0.755587;stroke-linecap:round;stroke-linejoin:round;stroke-dasharray:none;stroke-opacity:1"
         id="rect23072-4-9"
         width="10.006605"
         height="3.6319947"
         x="157.58411"
         y="148.90472"
         ry="0"
         transform="matrix(1,0,-0.17102919,0.98526597,0,-8.1249998e-7)" /></g><g
       id="g26019"
       inkscape:label="Decal-Diagram-Simple"
       style="display:inline;fill:#1a1a1a"
       transform="translate(-25.873084,-81.649975)"><path
         style="fill:none;fill-opacity:1;stroke:#ffffff;stroke-width:1;stroke-linecap:round;stroke-linejoin:round;stroke-dasharray:none;stroke-opacity:1"
         d="m 116.5818,143.07178 h 33.92393"
         id="path25999"
         sodipodi:nodetypes="cc" /><path
         style="display:inline;fill:#1a1a1a;fill-opacity:1;stroke:#ffffff;stroke-width:1.54374;stroke-linecap:round;stroke-linejoin:round;stroke-dasharray:none;stroke-opacity:1"
         d="m 111.2446,137.42589 -1.78876,11.95263 22.48733,-6.31139 z"
         id="path26005"
         inkscape:label="path26005" /><rect
         style="display:inline;fill:#1a1a1a;fill-opacity:1;stroke:#ffffff;stroke-width:1.31388;stroke-linecap:round;stroke-linejoin:round;stroke-dasharray:none;stroke-opacity:1"
         id="rect26011"
         width="15.851325"
         height="7.2669106"
         x="155.83083"
         y="140.57762"
         ry="0"
         transform="matrix(1,0,-0.13540804,0.99078992,0,0)" /></g><rect
       style="fill:#aa0000;fill-opacity:1;stroke:none;stroke-width:3.39646;stroke-linecap:round;stroke-linejoin:round;stroke-dasharray:none;stroke-opacity:1"
       id="rect22616"
       width="16"
       height="6"
       x="20"
       y="79" /><rect
       style="display:inline;fill:#777778;fill-opacity:1;stroke:none;stroke-width:3.79736;stroke-linecap:round;stroke-linejoin:round;stroke-dasharray:none;stroke-opacity:1"
       id="rect22616-2"
       width="20"
       height="6"
       x="60"
       y="79" /><rect
       style="display:inline;fill:#777778;fill-opacity:1;stroke:none;stroke-width:3.79736;stroke-linecap:round;stroke-linejoin:round;stroke-dasharray:none;stroke-opacity:1"
       id="rect22616-2-6"
       width="20"
       height="6"
       x="82"
       y="79" /><rect
       style="display:inline;fill:#777778;fill-opacity:1;stroke:none;stroke-width:3.79736;stroke-linecap:round;stroke-linejoin:round;stroke-dasharray:none;stroke-opacity:1"
       id="rect22616-2-6-6"
       width="20"
       height="6"
       x="125"
       y="79" /><rect
       style="fill:#ffffff;fill-opacity:1;stroke:none;stroke-width:1;stroke-linecap:round;stroke-linejoin:round;stroke-dasharray:none;stroke-opacity:1"
       id="rect24906"
       width="25"
       height="2.5"
       x="92.5"
       y="42.25" /><rect
       style="display:inline;fill:#ffffff;fill-opacity:1;stroke:none;stroke-width:0.282843;stroke-linecap:round;stroke-linejoin:round;stroke-dasharray:none;stroke-opacity:1"
       id="rect24906-2"
       width="5"
       height="1"
       x="93.990837"
       y="48.500107" /><path
       id="rect25584"
       style="fill:#ffffff;stroke-width:1.22474;stroke-linecap:round;stroke-linejoin:round"
       d="m 79.999768,45.999776 v 6.000151 h 22.883362 l 2.11666,-6.000151 z m 1.345664,1.298629 h 21.795538 l -1.31722,3.403409 H 81.345432 Z"
       sodipodi:nodetypes="cccccccccc" /><path
       id="rect25584-7"
       style="display:inline;fill:#ffffff;stroke-width:1.22474;stroke-linecap:round;stroke-linejoin:round"
       d="m 107.11646,45.999776 -2.11667,6.000151 h 25.00003 v -6.000151 z m 1.0599,1.298629 h 20.47831 v 3.403409 h -21.79554 z"
       sodipodi:nodetypes="cccccccccc" /><rect
       style="fill:#3c3c3d;fill-opacity:1;stroke:none;stroke-width:1.21061;stroke-linecap:round;stroke-linejoin:round;stroke-dasharray:none;stroke-opacity:1"
       id="rect25701"
       width="10"
       height="3.403409"
       x="81.345001"
       y="47.298405" /><rect
       style="fill:#3c3c3d;fill-opacity:1;stroke:none;stroke-width:1.21061;stroke-linecap:round;stroke-linejoin:round;stroke-dasharray:none;stroke-opacity:1"
       id="rect25757"
       width="10"
       height="3.403409"
       x="118.65467"
       y="47.298405" /><rect
       style="display:inline;fill:#ffffff;fill-opacity:1;stroke:none;stroke-width:0.282843;stroke-linecap:round;stroke-linejoin:round;stroke-dasharray:none;stroke-opacity:1"
       id="rect25813"
       width="5"
       height="1"
       x="111.00883"
       y="48.500107" /><rect
       style="display:inline;fill:#ffffff;fill-opacity:1;stroke:none;stroke-width:0.4;stroke-linecap:round;stroke-linejoin:round;stroke-dasharray:none;stroke-opacity:1"
       id="rect25813-2"
       width="5"
       height="2"
       x="25.5"
       y="81" /><rect
       style="display:inline;fill:#ffffff;fill-opacity:1;stroke:none;stroke-width:0.4;stroke-linecap:round;stroke-linejoin:round;stroke-dasharray:none;stroke-opacity:1"
       id="rect25842"
       width="5"
       height="2"
       x="67.5"
       y="81" /><rect
       style="display:inline;fill:#ffffff;fill-opacity:1;stroke:none;stroke-width:0.4;stroke-linecap:round;stroke-linejoin:round;stroke-dasharray:none;stroke-opacity:1"
       id="rect25844"
       width="5"
       height="2"
       x="89.5"
       y="81" /><rect
       style="display:inline;fill:#ffffff;fill-opacity:1;stroke:none;stroke-width:0.4;stroke-linecap:round;stroke-linejoin:round;stroke-dasharray:none;stroke-opacity:1"
       id="rect25846"
       width="5"
       height="2"
       x="132.5"
       y="81" /></g></svg>
